<?xml version="1.0" standalone="no"?>
<!DOCTYPE svg PUBLIC "-//W3C//DTD SVG 20010904//EN"
 "http://www.w3.org/TR/2001/REC-SVG-20010904/DTD/svg10.dtd">
<svg version="1.0" xmlns="http://www.w3.org/2000/svg"
 width="1279.000000pt" height="1602.000000pt" viewBox="0 0 1279.000000 1602.000000"
 preserveAspectRatio="xMidYMid meet">

<g transform="translate(0.000000,1602.000000) scale(0.100000,-0.100000)"
fill="#000000" stroke="none">
<path d="M6600 14303 c-99 -16 -174 -38 -205 -61 -100 -74 -154 -124 -170
-159 -51 -106 -71 -276 -39 -322 10 -13 19 -37 20 -54 5 -42 75 -146 133 -199
73 -65 168 -120 246 -140 39 -10 81 -23 94 -28 37 -17 221 -13 272 5 24 8 53
15 63 15 35 0 153 78 200 132 25 28 55 77 66 107 12 31 25 63 30 72 4 8 6 51
5 95 -6 167 -88 305 -245 410 -36 24 -71 44 -77 44 -7 0 -27 9 -45 19 -18 11
-51 23 -73 26 -22 4 -49 13 -60 20 -21 12 -171 25 -215 18z m285 -196 c122
-53 237 -172 264 -272 17 -66 16 -147 -3 -187 -24 -49 -110 -122 -177 -149
-47 -18 -69 -20 -179 -17 -117 3 -129 6 -185 35 -33 17 -71 36 -85 42 -14 7
-55 40 -91 74 -91 85 -113 140 -107 257 6 106 22 139 91 184 106 71 128 76
267 72 116 -4 131 -7 205 -39z"/>
<path d="M3700 11964 c-299 -41 -546 -169 -772 -400 -134 -138 -200 -224 -253
-330 -50 -99 -80 -194 -62 -194 6 0 0 -10 -12 -21 -19 -18 -22 -28 -17 -60 10
-64 4 -68 -80 -62 -64 5 -74 4 -74 -10 0 -23 41 -48 90 -54 41 -6 44 -10 34
-36 -4 -11 -16 -14 -43 -10 -27 4 -41 1 -50 -11 -20 -24 1 -42 55 -45 7 -1 14
-15 16 -31 4 -25 1 -31 -18 -36 -24 -6 -31 -19 -40 -70 -2 -16 -17 -100 -33
-187 -17 -95 -24 -160 -18 -164 6 -3 5 -8 -1 -12 -21 -13 -62 -519 -43 -531 6
-3 -20 -28 -57 -55 -97 -72 -124 -129 -125 -262 -1 -149 20 -206 108 -296 32
-31 59 -57 61 -57 3 0 15 -9 27 -21 12 -12 39 -32 60 -45 20 -13 37 -30 37
-37 0 -7 -21 -44 -47 -83 -26 -38 -66 -102 -89 -142 -45 -78 -90 -118 -314
-285 -251 -187 -553 -479 -678 -657 -59 -84 -112 -254 -112 -355 0 -36 31
-122 48 -135 4 -3 12 -14 18 -25 15 -27 68 -63 113 -75 44 -12 185 -12 309 0
97 9 126 6 119 -14 -6 -17 84 -146 132 -189 34 -31 48 -37 84 -37 31 0 49 6
62 20 10 11 24 20 32 20 8 0 31 9 53 20 49 25 50 25 50 -5 0 -14 -3 -25 -8
-25 -4 0 -13 -15 -21 -32 -7 -18 -30 -69 -51 -113 -21 -44 -48 -105 -59 -135
-12 -30 -26 -64 -31 -75 -50 -103 -106 -255 -96 -259 6 -2 3 -5 -6 -5 -10 -1
-18 -5 -18 -10 0 -15 -140 -304 -155 -321 -17 -19 -71 -151 -86 -211 -7 -26
-18 -55 -26 -65 -12 -17 -14 -16 -39 7 -15 13 -33 39 -41 57 -7 18 -24 37 -36
42 -12 5 -40 25 -61 44 -67 61 -120 81 -212 81 -72 0 -84 -3 -115 -26 -54 -42
-88 -122 -101 -234 -9 -86 -8 -105 11 -178 24 -94 70 -192 99 -213 11 -8 23
-28 27 -45 7 -31 186 -229 208 -229 9 0 65 -44 112 -88 11 -10 32 -34 46 -52
19 -25 27 -30 31 -19 6 16 -21 125 -46 181 -8 20 -18 61 -22 90 -8 67 27 170
117 350 64 127 107 225 139 316 11 29 30 74 44 100 13 26 41 88 61 137 20 50
43 104 50 120 42 93 75 179 75 191 0 8 4 22 10 32 22 39 60 136 60 154 0 10 7
29 14 41 16 24 98 244 99 265 0 6 3 12 7 12 3 0 14 25 25 55 16 48 22 55 45
55 15 0 36 10 50 25 13 14 26 25 29 25 4 0 5 -20 3 -45 -4 -44 10 -61 22 -29
5 13 9 14 22 4 8 -7 13 -19 10 -27 -4 -9 3 -13 20 -13 14 0 23 4 19 10 -4 6
-11 8 -16 5 -5 -4 -9 -2 -9 3 0 5 9 12 20 15 11 3 18 2 15 -3 -3 -4 2 -10 10
-13 14 -6 59 63 83 128 17 44 52 190 52 214 0 42 23 123 39 139 100 99 223
302 311 514 24 57 48 109 53 115 5 7 7 20 3 28 -3 8 -2 15 3 15 5 0 9 6 8 13
0 6 1 29 1 49 l2 37 83 -5 c45 -3 85 -8 88 -12 3 -4 21 -44 39 -89 19 -49 36
-80 43 -76 6 3 7 1 3 -5 -8 -13 28 -73 75 -127 25 -28 34 -33 41 -23 8 10 9 9
5 -3 -3 -10 4 -25 16 -35 38 -33 140 -97 154 -97 7 0 13 -4 13 -8 0 -5 37 -20
83 -35 127 -41 274 -34 475 22 66 18 177 68 187 83 7 13 26 15 22 2 -1 -4 24
-30 56 -56 31 -26 57 -48 57 -50 0 -1 -4 -15 -10 -31 -5 -16 -11 -42 -14 -59
-3 -16 -10 -48 -16 -70 -11 -39 -77 -321 -85 -360 -2 -11 -13 -67 -24 -125
-28 -153 -57 -262 -101 -380 -21 -58 -41 -119 -45 -137 -5 -32 -4 -34 53 -69
2 -1 -16 -41 -40 -90 -62 -128 -69 -154 -74 -262 -5 -124 -7 -135 -21 -147
-23 -19 -31 -153 -27 -455 2 -168 7 -332 9 -365 10 -109 14 -459 7 -535 -7
-73 -8 -75 -32 -72 -14 1 -47 -2 -75 -8 -55 -12 -76 -15 -148 -25 -34 -5 -45
-10 -36 -16 17 -11 169 -12 169 -1 0 4 15 7 33 7 17 0 42 4 55 8 21 8 22 6 22
-38 0 -47 -4 -52 -50 -57 -14 -2 -31 -7 -37 -11 -7 -5 -13 -4 -13 0 0 5 -39 3
-87 -4 -104 -17 -259 -11 -538 18 -104 11 -233 25 -285 30 -52 5 -122 13 -155
19 -33 5 -145 21 -250 35 -248 34 -459 69 -590 100 -59 14 -110 23 -115 20 -4
-3 -10 -1 -12 3 -1 4 -55 22 -118 39 -63 17 -114 35 -113 41 1 5 -15 30 -36
53 -46 53 -61 80 -61 111 -1 23 -1 23 -16 3 -36 -48 16 -150 96 -187 l51 -23
-38 -11 c-44 -13 -41 9 -29 -219 4 -77 11 -141 16 -143 6 -2 6 -11 -1 -23 -10
-19 -6 -771 5 -864 5 -48 6 -976 0 -1055 -7 -106 -10 -526 -5 -595 l6 -70 38
-3 c21 -2 37 1 37 7 0 8 69 11 218 9 119 -1 335 0 479 2 l261 3 5 31 c3 17 10
49 16 71 6 22 11 62 11 88 0 26 6 60 14 75 10 19 14 66 15 152 0 69 3 163 6
210 8 141 16 262 20 315 21 256 26 324 35 420 6 61 15 144 21 185 5 41 11 91
13 110 3 41 35 300 42 347 l5 31 44 -24 c27 -16 42 -30 39 -39 -3 -7 0 -16 6
-20 9 -6 9 -9 0 -15 -10 -6 -10 -30 -1 -111 13 -116 13 -116 11 -393 -1 -155
1 -201 12 -207 10 -7 9 -9 -5 -9 -12 0 -15 -4 -11 -12 9 -14 7 -657 -2 -708
-12 -69 -53 -426 -54 -464 l0 -38 58 7 c31 4 113 7 181 6 90 -1 127 3 133 12
5 7 8 8 8 1 0 -8 43 -10 138 -8 75 1 193 3 262 4 89 0 134 5 154 15 16 8 35
15 42 15 15 0 18 61 20 325 0 66 8 190 17 275 9 85 17 166 16 180 -1 14 3 68
9 120 6 52 11 102 11 110 1 135 56 659 86 820 l13 75 -1 -72 c-1 -40 -5 -73
-9 -73 -13 0 -9 -147 6 -204 18 -68 31 -93 56 -106 14 -7 23 -6 34 6 22 21 20
32 -6 36 -35 5 -48 64 -49 220 0 76 2 141 4 145 11 18 18 200 9 224 -28 73
-90 80 -158 17 -25 -23 -52 -55 -61 -71 -23 -45 -71 -87 -98 -87 -30 0 -32 17
-6 68 10 20 31 73 46 117 34 101 63 152 136 242 33 39 59 76 59 82 0 7 6 14
14 17 23 9 36 61 41 159 3 50 8 122 11 160 11 122 5 416 -11 540 -30 241 -32
272 -28 380 2 61 4 126 4 145 -1 19 3 99 8 177 9 130 12 145 38 184 26 40 28
50 30 152 1 124 5 135 133 402 31 66 70 149 85 185 16 36 38 81 50 100 38 64
140 289 137 303 -1 4 3 7 8 7 5 0 9 3 8 8 -1 4 13 39 31 77 18 39 41 112 51
163 10 52 20 96 23 98 8 8 95 -119 112 -162 9 -22 20 -48 25 -59 13 -30 47
-153 59 -215 25 -128 44 -267 86 -635 8 -77 18 -150 20 -162 4 -19 -1 -24 -37
-33 -24 -6 -52 -15 -63 -20 -11 -5 -36 -12 -55 -16 -19 -3 -78 -20 -130 -36
-52 -16 -174 -49 -270 -74 -96 -25 -177 -48 -180 -52 -3 -4 -11 -7 -19 -7 -21
0 -38 -32 -24 -46 14 -14 150 8 251 40 40 12 65 15 76 9 11 -6 16 -6 14 3 -2
7 80 40 217 86 287 97 284 96 199 32 -90 -69 -184 -154 -184 -168 0 -6 -4 -10
-10 -8 -17 4 -119 -125 -178 -225 -31 -54 -60 -98 -64 -98 -7 0 -4 112 8 268
4 55 2 72 -8 72 -9 0 -9 3 2 11 13 9 13 10 0 6 -22 -6 -38 -108 -49 -320 -10
-181 -14 -218 -26 -238 -23 -35 -57 -221 -67 -357 -9 -132 -8 -171 6 -276 17
-118 17 -126 -3 -271 -12 -83 -23 -170 -26 -195 -3 -25 -12 -83 -20 -130 -16
-97 -19 -190 -6 -190 21 0 34 37 47 133 26 192 28 217 15 217 -9 0 -8 4 2 14
8 8 17 39 21 68 14 116 19 138 27 138 5 0 9 -6 9 -14 0 -8 16 -38 36 -67 36
-54 36 -54 24 -104 -19 -74 -20 -94 -9 -160 22 -117 100 -208 220 -255 56 -22
119 -26 137 -8 9 9 12 9 12 -3 0 -9 -18 -31 -40 -49 -22 -18 -40 -39 -40 -45
0 -6 -9 -17 -21 -25 -11 -8 -29 -31 -41 -51 -20 -36 -20 -36 -86 -35 -57 1
-77 -4 -134 -32 -90 -45 -168 -120 -224 -217 -25 -44 -44 -71 -41 -60 30 123
41 163 48 180 14 34 45 293 40 330 -8 54 -20 31 -36 -69 -8 -48 -17 -91 -20
-96 -3 -6 -1 -10 6 -10 8 0 8 -4 1 -12 -5 -7 -17 -56 -26 -108 -9 -52 -32
-146 -52 -209 -39 -123 -48 -188 -25 -183 10 2 12 -10 6 -60 -11 -93 -9 -267
4 -282 6 -7 8 -15 5 -18 -7 -8 14 -120 33 -178 19 -58 78 -176 104 -209 60
-75 158 -174 196 -197 24 -13 43 -30 43 -36 0 -19 92 -200 138 -273 88 -137
226 -245 315 -245 66 0 49 26 -90 144 -95 80 -125 116 -235 276 -101 149 -123
204 -153 371 -14 80 -25 161 -25 180 0 26 -3 30 -10 19 -14 -22 -13 -100 2
-100 9 0 9 -3 0 -12 -17 -17 -15 -26 6 -31 13 -4 13 -5 2 -6 -14 -1 -15 -12
-9 -78 4 -43 6 -80 3 -82 -2 -3 -12 6 -21 19 -9 13 -24 31 -34 41 -36 36 -149
217 -149 239 0 7 -6 26 -14 43 -20 44 -44 158 -52 249 -14 157 52 383 144 497
62 75 86 95 167 137 38 19 73 41 77 47 5 8 8 9 8 1 0 -7 11 -9 25 -6 l25 4
-16 -43 c-18 -48 -21 -61 -30 -131 -7 -53 9 -67 26 -23 39 102 153 299 207
355 18 19 36 43 39 53 3 9 8 17 12 17 4 0 36 -27 72 -60 79 -74 148 -116 286
-175 223 -95 436 -134 704 -130 142 2 180 6 270 29 121 32 210 64 226 83 6 7
13 10 16 7 3 -3 39 13 79 35 146 80 174 93 267 127 53 19 98 37 101 42 3 4 17
8 31 10 14 1 47 8 73 14 27 6 52 7 56 2 38 -47 86 -112 128 -174 56 -84 163
-277 163 -294 0 -7 4 -16 8 -22 5 -5 21 -49 36 -99 78 -257 89 -283 106 -255
15 24 -8 185 -27 185 -6 0 -15 3 -19 8 -4 4 1 7 10 7 13 0 16 5 11 18 -4 9
-11 34 -15 54 -17 85 -95 262 -164 368 -19 30 -31 56 -26 58 24 9 147 -48 235
-108 58 -40 174 -165 224 -243 24 -37 47 -67 52 -67 4 0 11 -10 14 -22 4 -13
18 -46 30 -74 13 -28 33 -95 45 -150 21 -96 22 -137 5 -275 -6 -49 -35 -131
-65 -184 -35 -61 -71 -95 -153 -145 -31 -19 -57 -40 -57 -48 0 -7 -4 -10 -10
-7 -5 3 -10 1 -10 -6 0 -17 127 -6 169 15 97 51 178 182 197 321 2 11 9 49 15
85 23 123 -9 300 -85 465 -50 109 -244 335 -322 375 -16 8 -35 21 -42 28 -20
19 -63 39 -102 48 -44 10 -42 9 -63 19 -10 4 -40 5 -68 2 -27 -3 -49 -3 -49 2
0 4 -31 40 -68 79 -67 71 -68 72 -47 86 12 8 38 39 58 69 27 40 44 56 66 60
36 7 96 59 119 102 36 68 104 208 107 219 1 6 7 24 14 41 7 16 10 37 8 47 -3
10 0 18 8 18 7 0 15 10 18 23 3 12 11 42 17 67 6 25 13 57 15 73 2 15 6 31 9
36 3 4 8 64 11 132 7 130 -7 298 -25 309 -6 4 -8 14 -4 23 8 23 -23 160 -52
226 -13 29 -24 58 -24 64 0 12 -109 240 -118 247 -12 9 -43 72 -38 77 2 3 19
-2 38 -11 74 -34 214 -88 231 -89 9 -1 17 -5 17 -9 0 -4 5 -8 11 -8 5 0 34
-11 63 -24 29 -13 71 -30 94 -37 40 -12 44 -16 91 -115 69 -144 112 -204 184
-258 34 -26 41 -28 65 -17 78 35 142 104 108 117 -18 7 -49 -9 -103 -52 -47
-39 -53 -41 -53 -16 0 9 -9 28 -20 42 -31 39 -100 144 -100 153 0 4 -15 40
-34 80 -90 192 -109 233 -112 252 -1 11 -17 72 -33 135 -36 137 -37 157 -10
178 20 17 18 59 -2 46 -5 -3 -6 -11 -3 -17 4 -7 3 -9 -1 -4 -5 4 -19 -2 -31
-14 l-22 -21 -73 26 c-40 14 -80 26 -90 26 -9 0 -19 4 -21 9 -5 14 -286 88
-398 105 -73 10 -237 35 -275 41 -22 4 -94 37 -160 75 -66 37 -129 71 -140 74
-11 4 -40 34 -64 68 -61 83 -164 191 -233 243 -64 48 -151 70 -172 44 -6 -8
-37 -36 -68 -62 -32 -27 -85 -82 -119 -123 -34 -41 -67 -74 -74 -74 -20 0
-271 -106 -285 -120 -3 -3 -11 -6 -18 -8 -16 -3 -265 -124 -307 -149 -85 -50
-160 -99 -163 -105 -11 -25 -20 3 -26 80 -5 69 -41 354 -81 652 -22 160 -70
343 -114 428 -11 21 -35 59 -54 84 -19 24 -36 49 -38 55 -3 9 -74 91 -164 188
-11 12 -39 32 -62 43 -22 12 -43 26 -45 31 -3 9 -121 108 -175 146 -164 118
-219 155 -230 155 -20 0 -16 50 8 89 l20 34 57 -8 c85 -11 216 -10 317 3 145
19 219 32 224 40 4 4 11 7 16 7 24 1 116 28 121 36 3 5 14 9 25 9 10 0 19 4
19 9 0 5 10 13 23 16 12 4 64 28 115 53 228 113 314 286 270 543 -12 68 -11
74 16 151 15 44 25 82 22 85 -3 4 -2 11 3 17 4 6 16 34 25 63 10 29 28 60 40
70 13 10 38 53 56 96 28 63 37 76 52 71 13 -4 16 -1 12 10 -3 9 -10 16 -16 16
-5 0 -6 5 -3 10 3 6 18 7 32 4 19 -5 30 -2 39 10 18 25 7 46 -23 46 -25 0 -25
1 -9 23 49 68 101 194 146 357 50 182 73 469 51 651 -10 93 -51 271 -70 307
-5 9 -32 76 -61 147 -28 72 -53 136 -57 143 -3 7 2 12 11 12 8 0 20 9 26 19
19 36 13 44 -32 38 l-41 -6 26 23 c30 26 36 66 11 66 -9 0 -29 -9 -44 -20
l-29 -20 -15 22 c-9 12 -16 29 -16 37 0 41 -109 168 -133 155 -7 -4 -9 -3 -4
1 8 10 -41 65 -58 65 -6 0 -17 8 -26 18 -52 60 -252 190 -401 260 -98 46 -339
132 -369 132 -11 0 -30 6 -42 14 -38 25 -163 35 -432 34 -170 0 -296 -5 -365
-14z m-665 -623 c5 -23 0 -39 -19 -68 -14 -21 -26 -43 -26 -49 0 -6 -9 -23
-21 -38 l-21 -26 26 10 c31 11 70 -1 80 -25 18 -47 -3 -109 -43 -129 -36 -17
-59 -10 -78 27 -11 22 -18 27 -21 17 -9 -28 -45 -60 -69 -60 -39 0 -60 17 -78
63 -14 38 -15 50 -4 88 7 24 14 52 15 61 5 61 87 148 161 173 49 17 88 -1 98
-44z m436 -181 c29 -16 23 -52 -20 -139 -42 -82 -60 -98 -91 -81 -60 32 -50
127 20 198 34 33 58 39 91 22z m169 -85 c34 -36 25 -103 -21 -144 -18 -17 -39
-31 -45 -31 -22 0 -64 60 -64 91 0 16 11 46 24 67 30 48 71 54 106 17z m1065
-81 c46 -18 56 -130 16 -184 -25 -34 -70 -38 -98 -8 -29 31 -39 122 -18 154 9
13 22 24 30 24 8 0 15 5 15 10 0 11 30 13 55 4z m196 -54 c19 0 59 -73 59
-109 0 -13 -8 -36 -17 -52 -14 -23 -24 -29 -53 -29 -37 1 -70 19 -74 42 -1 7
-5 19 -10 27 -16 25 -18 80 -4 93 29 29 63 46 73 37 5 -5 17 -9 26 -9z m576
-38 c13 -16 12 -86 -1 -99 -9 -9 -96 -4 -115 7 -9 5 -12 10 -7 10 6 0 1 6 -9
14 -16 12 -18 19 -10 42 6 16 22 34 35 41 31 16 89 8 107 -15z m-219 2 c21
-15 45 -55 46 -79 0 -5 -3 -24 -6 -42 -14 -61 -88 -52 -126 16 -29 51 -28 71
5 98 31 27 50 29 81 7z m-1388 -190 c87 -7 77 -5 198 -34 91 -21 157 -46 385
-144 89 -38 120 -46 170 -46 199 -1 444 -76 572 -173 57 -44 125 -105 125
-113 0 -3 13 -22 29 -42 43 -54 89 -142 117 -225 29 -85 30 -167 3 -285 -9
-42 -25 -112 -34 -156 l-17 -78 -17 28 c-10 16 -29 40 -43 54 -14 14 -38 50
-53 80 -27 54 -80 120 -98 120 -4 0 -29 9 -54 21 -25 11 -61 23 -79 26 -60 10
-113 -17 -66 -34 9 -4 19 -10 22 -13 3 -4 29 -20 58 -34 30 -15 52 -29 49 -32
-2 -3 -36 4 -75 15 -176 49 -418 54 -505 12 -43 -21 -96 -76 -110 -114 -3 -9
-9 -9 -23 0 -76 50 -99 57 -191 58 l-91 0 -7 40 c-3 21 -15 53 -25 70 -49 79
-222 155 -443 195 -77 14 -79 24 -5 26 62 2 79 16 53 44 -27 30 -83 43 -166
39 -59 -3 -89 -11 -142 -37 -36 -18 -74 -43 -84 -55 -10 -13 -39 -35 -65 -50
-84 -49 -137 -144 -144 -258 -3 -44 -12 -82 -24 -104 -11 -19 -28 -50 -38 -67
-11 -18 -41 -67 -68 -109 -27 -42 -56 -90 -65 -106 -12 -22 -27 -32 -54 -37
-27 -5 -53 -23 -91 -60 -48 -49 -58 -54 -110 -60 -40 -4 -68 -14 -92 -33 l-35
-26 -45 23 c-59 32 -174 145 -203 200 -18 36 -23 61 -23 130 -1 47 3 98 7 113
13 46 94 125 140 138 55 15 95 5 215 -52 57 -28 105 -49 106 -47 0 2 11 22 24
45 13 25 27 75 32 119 7 52 21 100 44 148 40 82 66 113 111 132 42 17 51 30
65 89 61 253 157 441 280 547 27 23 50 48 50 54 0 20 85 53 132 52 23 0 75 4
113 9 69 10 140 9 285 -3z m-150 -853 c207 -47 326 -106 365 -181 23 -45 27
-121 11 -198 -40 -192 -149 -326 -314 -383 -85 -30 -240 -23 -335 16 -54 22
-67 31 -61 44 4 9 13 32 20 51 9 25 18 34 31 32 10 -2 52 -4 94 -5 62 -2 84 2
122 22 26 13 47 28 47 33 0 4 6 8 13 8 14 0 81 101 92 140 11 34 6 154 -6 158
-5 2 -9 13 -9 25 0 12 -24 50 -52 83 -45 52 -62 64 -110 79 -127 40 -258 -24
-327 -159 -31 -61 -33 -72 -29 -135 4 -51 13 -83 36 -125 l30 -56 -43 -30
c-40 -28 -43 -28 -58 -12 -9 10 -23 33 -31 53 -12 30 -12 43 -1 92 22 94 5
177 -37 177 -27 0 -30 17 -13 78 49 170 145 227 370 217 61 -2 148 -13 195
-24z m-18 -218 c24 -22 23 -65 -2 -88 -29 -26 -49 -27 -83 -3 -24 17 -28 26
-23 51 3 17 11 36 17 44 16 18 69 16 91 -4z m1316 -22 c52 -12 121 -33 155
-47 83 -35 172 -106 199 -157 19 -39 20 -47 9 -102 -7 -33 -16 -64 -21 -70 -4
-5 -16 -44 -25 -85 -21 -89 -36 -121 -83 -179 -44 -54 -107 -95 -181 -118 -75
-23 -235 -23 -313 1 -151 46 -276 181 -309 336 -17 77 -6 232 20 300 25 67 75
121 128 137 60 20 308 10 421 -16z m-1838 -123 c0 -60 -46 -186 -111 -301 -28
-49 -49 -97 -47 -107 3 -17 5 -17 45 3 103 54 148 81 211 127 98 71 121 67 83
-15 -21 -45 -92 -116 -166 -165 -27 -19 -62 -42 -78 -52 -21 -15 -31 -16 -48
-8 -28 15 -34 7 -16 -22 8 -12 17 -44 21 -71 12 -101 -47 -176 -263 -331 -53
-38 -98 -72 -101 -75 -3 -3 -12 -10 -21 -16 -10 -5 -30 -20 -45 -31 l-29 -22
-64 39 c-80 48 -106 72 -141 127 -35 54 -49 37 -20 -23 25 -51 78 -100 144
-134 25 -12 46 -29 46 -37 0 -19 -10 -18 -70 6 -87 34 -145 83 -187 159 l-22
39 27 18 c31 20 46 35 49 49 5 25 166 280 205 325 38 43 52 52 100 62 45 9 60
9 72 -1 21 -18 29 -64 21 -127 -11 -92 -50 -105 -76 -26 -14 44 -28 64 -40 56
-5 -3 -9 0 -9 6 0 7 -7 7 -22 -1 l-22 -12 21 -8 c15 -5 23 -20 28 -50 8 -46
51 -99 80 -99 35 0 54 20 61 65 3 25 8 45 10 45 2 0 13 -9 25 -21 13 -13 30
-19 47 -17 21 2 30 -3 42 -27 8 -16 20 -30 25 -30 6 0 13 35 16 79 4 62 9 81
25 93 11 8 15 17 9 21 -6 4 -11 39 -11 79 -1 46 -8 81 -18 100 -17 28 -17 28
48 128 37 55 66 104 66 108 0 5 8 21 19 35 10 15 21 40 25 56 4 15 14 39 23
53 21 32 33 15 33 -49z m1188 29 c52 -22 53 -23 48 -57 -36 -240 1 -388 129
-516 70 -71 136 -107 243 -135 90 -23 145 -24 245 -5 94 18 162 52 222 112
l47 46 -6 -39 c-7 -45 -7 -103 1 -198 6 -87 -8 -135 -59 -202 -90 -118 -306
-239 -505 -283 -83 -19 -327 -38 -448 -34 -111 2 -122 1 -145 -19 -54 -48 -70
-77 -70 -133 0 -47 2 -53 23 -56 12 -2 21 -7 19 -12 -2 -5 10 -15 27 -24 17
-8 31 -20 31 -27 0 -25 -110 -50 -220 -51 -58 0 -112 3 -120 7 -8 4 -46 18
-85 30 -192 60 -330 158 -286 204 10 11 41 121 48 171 4 27 -1 37 -31 64 -39
36 -175 117 -212 126 -13 3 -28 12 -35 20 -6 8 -18 14 -25 14 -8 0 -14 5 -14
11 0 5 -4 7 -10 4 -5 -3 -15 4 -21 17 -6 13 -35 39 -65 58 -29 19 -56 41 -59
49 -3 7 8 28 24 46 16 19 32 43 36 54 3 12 11 21 17 21 7 0 9 26 6 75 -5 69
-3 77 16 91 12 8 19 17 16 21 -3 4 7 10 22 14 33 9 81 41 131 88 l37 35 48
-18 c249 -98 471 -60 617 106 62 70 118 197 132 295 6 44 5 44 68 56 37 7 109
-4 163 -26z m-1172 -273 c17 -31 17 -36 4 -45 -8 -5 -40 -24 -71 -43 l-55 -33
44 78 c25 44 48 79 52 79 4 0 15 -16 26 -36z m-266 -93 c15 -29 11 -117 -8
-190 -29 -109 -72 -107 -93 4 -13 71 -24 95 -44 95 -34 0 -3 32 85 87 43 28
47 28 60 4z m30 -571 c0 -5 6 -10 13 -10 7 0 51 -29 98 -65 46 -35 136 -91
199 -123 123 -63 139 -82 119 -141 l-10 -27 -67 8 c-37 5 -78 11 -92 13 -14 2
-50 6 -80 9 -30 3 -77 8 -105 12 -27 4 -111 6 -185 6 -142 -1 -217 -13 -335
-56 -36 -13 -65 -21 -65 -19 0 18 99 143 117 148 12 3 30 19 40 35 9 17 24 30
31 30 16 0 197 116 252 161 34 29 70 38 70 19z m-596 -164 c23 -23 65 -50 92
-60 27 -11 51 -20 53 -22 5 -5 -37 -63 -99 -134 -85 -100 -140 -174 -233 -315
-48 -72 -105 -155 -127 -185 -202 -269 -224 -304 -180 -280 61 33 143 132 284
345 138 210 207 305 228 316 41 22 224 78 287 88 97 15 105 15 96 -6 -22 -53
-80 -228 -90 -274 -19 -86 -201 -460 -319 -655 -33 -55 -31 -51 -87 -118 -22
-27 -39 -56 -36 -65 2 -11 -11 -25 -39 -43 l-44 -27 -5 22 c-3 12 -12 53 -20
90 -26 112 -147 393 -165 382 -9 -6 -4 -27 33 -135 29 -81 26 -90 -29 -90 -17
0 -73 -9 -125 -20 -111 -23 -245 -40 -311 -40 -36 0 -58 7 -92 30 -45 31 -106
99 -106 119 0 6 -4 11 -9 11 -16 0 -4 144 19 220 22 74 86 210 98 210 4 0 41
39 82 88 84 98 343 347 437 419 34 27 62 54 63 61 0 6 5 12 10 12 11 0 123 89
200 158 l45 41 23 -51 c12 -28 42 -69 66 -92z m1012 -279 c-5 -27 -1 -42 20
-73 64 -96 161 -158 344 -220 77 -26 98 -29 220 -29 138 0 175 8 282 63 7 4
78 -57 78 -68 0 -14 -115 -59 -205 -80 -50 -12 -97 -26 -107 -30 -9 -5 -63 -8
-120 -6 -81 3 -117 9 -168 28 -148 57 -262 145 -342 264 -50 75 -98 157 -98
169 0 2 17 6 38 8 20 2 43 4 51 5 10 2 12 -6 7 -31z m1014 23 c0 -5 -5 -10
-11 -10 -5 0 -7 5 -4 10 3 6 8 10 11 10 2 0 4 -4 4 -10z m-2337 -1022 c19 -80
26 -161 15 -159 -5 1 -13 1 -19 1 -23 0 -179 164 -179 189 0 4 12 8 28 9 15 1
50 9 77 16 28 8 53 15 56 15 3 1 13 -32 22 -71z m4201 -392 c41 -17 140 -116
226 -226 36 -46 84 -104 108 -131 40 -43 44 -66 10 -55 -7 3 -47 7 -88 11 -41
3 -111 12 -155 20 -44 8 -148 18 -230 21 l-150 7 -33 -27 c-17 -15 -32 -33
-32 -40 0 -6 -9 -19 -20 -29 -11 -9 -20 -23 -20 -31 0 -49 139 -136 217 -136
31 -1 35 -3 21 -11 -41 -23 -13 -67 57 -89 22 -7 49 -16 60 -21 41 -17 132
-29 180 -25 28 3 56 5 63 5 6 1 12 5 12 11 0 6 -36 9 -87 7 -108 -2 -242 32
-265 67 -11 17 49 34 120 35 35 1 61 5 58 10 -5 8 -41 16 -177 40 -57 10 -180
69 -187 90 -4 12 18 14 115 12 54 -2 61 0 59 16 -3 20 -36 30 -109 32 -29 1
-46 5 -42 11 9 15 168 12 281 -5 171 -26 297 -44 344 -49 46 -4 148 -19 255
-36 33 -6 146 -21 250 -35 105 -14 246 -38 315 -52 69 -14 132 -26 140 -27 8
-1 22 -5 30 -8 44 -18 177 -58 192 -58 20 0 38 -29 38 -63 0 -38 69 -299 86
-326 16 -23 16 -24 -12 -17 -32 8 -121 40 -174 64 -117 52 -226 90 -236 81 -8
-6 -13 -3 -17 11 -3 11 -13 20 -22 20 -9 0 -29 6 -43 14 -15 7 -54 21 -87 31
-33 10 -89 31 -125 48 -36 16 -81 35 -100 42 -20 7 -67 28 -105 46 -78 37
-133 41 -310 26 -115 -9 -131 -12 -128 -23 2 -5 67 -10 145 -12 164 -3 225
-15 378 -77 107 -44 131 -53 140 -52 15 0 98 -48 113 -67 65 -80 172 -273 226
-408 110 -279 122 -607 30 -853 -11 -30 -21 -63 -22 -75 -1 -11 -4 -20 -8 -20
-3 0 -19 -33 -34 -72 -16 -40 -36 -84 -45 -98 -9 -14 -24 -42 -34 -62 -9 -21
-21 -38 -26 -38 -5 0 -2 17 7 38 46 109 -14 280 -114 324 -49 22 -144 26 -202
8 -41 -11 -89 -1 -169 36 -29 13 -57 24 -62 24 -5 0 -34 16 -64 35 -30 19 -60
35 -66 35 -5 0 -10 5 -10 10 0 6 -5 10 -11 10 -6 0 -24 9 -40 21 -36 25 -147
81 -216 108 -273 107 -630 101 -972 -15 -98 -34 -224 -93 -234 -110 -5 -8 -12
-12 -17 -9 -5 3 -41 -14 -79 -39 -103 -68 -111 -70 -156 -52 -20 9 -63 16 -95
16 -75 0 -166 -44 -217 -106 -21 -24 -43 -44 -51 -44 -7 0 -10 5 -7 10 4 6 -5
48 -19 93 -32 101 -54 282 -50 402 3 108 27 264 55 358 11 37 17 72 13 79 -4
6 -3 8 3 5 5 -3 26 33 46 81 98 232 287 437 578 630 120 80 222 135 502 274
108 54 197 103 197 109 0 5 5 7 10 4 6 -4 22 4 36 17 81 72 124 116 124 126 0
7 3 12 8 12 4 0 22 23 40 50 18 28 37 50 43 50 5 0 25 -6 43 -14z m-4869 -958
c83 -52 123 -88 182 -165 l63 -81 -41 -82 c-37 -77 -70 -168 -84 -232 -7 -34
-13 -35 -48 -2 -49 45 -153 210 -179 284 -26 75 -33 166 -18 229 18 75 58 90
125 49z m3285 -228 c0 -5 -2 -10 -4 -10 -3 0 -8 5 -11 10 -3 6 -1 10 4 10 6 0
11 -4 11 -10z m1490 -741 c8 -4 39 -9 68 -12 46 -5 52 -4 41 9 -9 11 -7 14 10
14 17 0 21 -4 17 -18 -5 -15 4 -21 51 -36 102 -32 232 -99 379 -197 38 -25 84
-53 102 -62 51 -25 143 -40 203 -33 154 19 175 18 217 -3 36 -18 43 -28 62
-87 28 -85 23 -122 -36 -239 -56 -112 -77 -136 -142 -165 -29 -13 -52 -27 -52
-32 0 -4 -6 -8 -14 -8 -8 0 -27 -6 -43 -14 -15 -8 -59 -24 -96 -36 -66 -19
-158 -62 -277 -126 -30 -17 -71 -36 -90 -44 -19 -7 -42 -19 -50 -25 -8 -7 -22
-12 -30 -12 -8 0 -49 -9 -90 -21 -126 -35 -231 -46 -385 -38 -127 6 -309 26
-360 40 -11 3 -36 10 -55 15 -19 6 -69 19 -110 29 -41 11 -88 25 -105 33 -106
45 -181 82 -220 109 -24 16 -46 30 -49 30 -4 0 -29 16 -58 36 -46 33 -56 36
-98 31 -51 -6 -52 -6 -187 95 -124 94 -128 274 -8 406 57 64 86 75 199 78 55
2 102 7 105 12 3 6 67 40 140 76 213 106 430 171 647 195 91 10 292 10 314 0z
m-4390 -229 c0 -5 -5 -10 -11 -10 -5 0 -7 5 -4 10 3 6 8 10 11 10 2 0 4 -4 4
-10z m5830 -118 c0 -14 -11 -21 -26 -15 -8 3 -11 9 -8 14 7 11 34 12 34 1z
m-5400 -12 c0 -5 -5 -10 -11 -10 -5 0 -7 5 -4 10 3 6 8 10 11 10 2 0 4 -4 4
-10z m1900 -141 c0 -18 -2 -20 -15 -9 -13 11 -13 15 -3 21 18 12 18 12 18 -12z
m-983 -729 c2 -11 -2 -20 -7 -20 -6 0 -10 12 -10 27 0 29 12 24 17 -7z m12
-90 c0 -23 -1 -23 -9 -5 -5 11 -9 29 -9 40 -1 17 1 17 9 5 5 -8 9 -26 9 -40z
m1188 -152 c-3 -8 -6 -5 -6 6 -1 11 2 17 5 13 3 -3 4 -12 1 -19z m-1887 -1608
c0 -5 -4 -10 -10 -10 -5 0 -10 5 -10 10 0 6 5 10 10 10 6 0 10 -4 10 -10z
m-360 -50 c0 -5 -5 -10 -11 -10 -5 0 -7 5 -4 10 3 6 8 10 11 10 2 0 4 -4 4
-10z"/>
<path d="M4997 9522 c-14 -13 -20 -14 -41 -3 -33 18 -84 7 -121 -25 -16 -14
-35 -29 -40 -32 -25 -17 -65 -95 -76 -151 -14 -64 -4 -130 28 -196 19 -38 73
-95 90 -95 7 0 13 -4 13 -9 0 -17 99 -43 138 -36 59 11 128 52 165 97 45 56
55 76 68 138 13 59 -1 137 -32 182 -11 14 -19 30 -19 35 -1 18 -78 83 -117 97
-36 13 -42 13 -56 -2z m118 -144 c19 -9 25 -19 25 -44 0 -18 -7 -40 -16 -48
-50 -50 -148 26 -107 83 16 24 58 28 98 9z"/>
<path d="M2859 8770 c-19 -10 -41 -25 -48 -34 -22 -27 13 -20 47 9 17 14 35
25 40 25 6 0 14 5 17 10 9 15 -15 10 -56 -10z"/>
<path d="M2695 8715 c-4 -22 -8 -43 -7 -47 1 -5 -2 -8 -7 -8 -5 0 -11 -11 -13
-25 -3 -13 -2 -22 3 -20 14 9 41 92 37 116 -3 19 -5 16 -13 -16z"/>
<path d="M3850 8950 c0 -25 136 -134 210 -167 102 -46 272 -31 355 33 33 25 1
36 -75 28 -36 -4 -103 -8 -150 -8 -78 -1 -90 2 -150 34 -36 19 -76 42 -90 51
-14 9 -42 24 -62 32 -36 15 -38 15 -38 -3z"/>
<path d="M6147 6286 c-10 -8 -14 -16 -10 -19 5 -3 65 -8 134 -11 138 -6 136 3
-8 29 -104 18 -94 18 -116 1z"/>
<path d="M5076 5496 c-47 -22 -95 -75 -128 -145 -30 -62 -32 -73 -32 -181 0
-133 17 -199 65 -248 64 -66 142 -60 215 15 71 73 114 188 114 308 0 96 -23
168 -69 217 -32 35 -44 41 -87 44 -27 2 -62 -2 -78 -10z m-11 -190 c30 -29 35
-39 29 -63 -8 -38 -40 -63 -79 -63 -87 0 -111 105 -33 143 43 22 41 22 83 -17z
m119 -242 c23 -9 21 -61 -3 -74 -26 -14 -50 -3 -57 26 -10 40 20 63 60 48z"/>
<path d="M6765 5491 c-49 -22 -79 -54 -100 -104 -42 -101 -37 -213 16 -327 97
-210 310 -250 399 -74 21 42 25 65 28 166 2 111 1 121 -24 170 -40 79 -90 134
-147 163 -61 30 -116 32 -172 6z m31 -195 c54 -54 28 -123 -50 -131 -44 -4
-90 80 -63 116 27 36 84 43 113 15z m235 -276 c25 -14 25 -54 -1 -80 -23 -23
-31 -24 -52 -7 -23 18 -28 53 -11 76 16 23 35 26 64 11z"/>
<path d="M5701 4294 c-51 -7 -137 -23 -190 -35 -238 -52 -391 -71 -510 -63
-105 7 -116 -3 -45 -43 21 -13 38 -27 37 -32 -3 -14 65 -83 117 -118 82 -56
207 -115 310 -148 50 -16 126 -20 134 -6 13 20 -93 80 -274 156 -105 44 -203
92 -225 109 -19 15 -16 15 37 10 68 -8 249 17 553 77 55 10 143 22 195 25 86
6 113 2 290 -35 107 -22 236 -50 285 -62 50 -11 141 -31 203 -43 61 -13 115
-25 118 -29 15 -15 -243 -110 -381 -141 -176 -38 -240 -46 -415 -51 -169 -5
-220 -10 -220 -25 0 -21 250 -50 390 -45 102 3 277 40 358 75 74 33 84 37 132
55 25 9 62 27 82 41 21 13 41 24 46 24 5 0 28 14 52 31 25 19 60 33 84 36 61
7 96 23 96 44 0 28 -26 37 -187 64 -81 13 -184 31 -228 40 -44 9 -150 29 -235
45 -85 17 -177 35 -205 41 -77 17 -298 19 -404 3z"/>
<path d="M9340 11004 c-103 -13 -185 -32 -296 -69 -88 -30 -239 -98 -248 -114
-4 -6 -14 -11 -21 -11 -37 0 -261 -160 -368 -262 -38 -36 -81 -72 -95 -79 -15
-8 -29 -16 -32 -19 -3 -3 -23 -17 -46 -32 -55 -36 -214 -193 -214 -213 0 -8
-4 -15 -9 -15 -13 0 -69 -129 -85 -200 -21 -87 -20 -115 6 -161 l21 -38 -35
-78 c-80 -175 -111 -324 -111 -523 1 -125 12 -187 59 -327 33 -97 106 -203
140 -203 8 0 14 -3 14 -7 0 -5 16 -25 35 -47 26 -29 34 -45 30 -64 -10 -57 54
-244 109 -317 38 -50 49 -75 37 -89 -6 -7 -15 -46 -22 -87 -14 -87 -1 -176 37
-249 28 -55 121 -154 160 -171 20 -9 149 -83 154 -89 10 -12 118 -54 200 -77
172 -48 363 -76 428 -62 45 10 70 1 87 -31 l14 -27 -87 -33 c-229 -87 -550
-280 -679 -407 -85 -85 -251 -329 -373 -551 -59 -108 -95 -168 -104 -174 -6
-4 -37 -8 -68 -8 -31 0 -63 -3 -72 -6 -22 -8 -20 -34 2 -34 9 0 35 -7 57 -15
46 -16 115 -20 115 -5 0 6 6 10 13 10 6 0 22 15 33 33 43 64 153 254 198 342
12 22 38 62 58 88 20 27 39 54 42 60 5 12 38 -18 84 -77 12 -16 25 -26 28 -23
8 8 -31 65 -67 98 l-28 26 48 66 c76 103 99 129 164 174 33 24 63 46 66 50 6
9 113 80 146 99 11 6 50 29 88 52 37 23 72 42 78 42 5 0 8 3 6 8 -3 4 6 8 21
9 26 1 45 -12 50 -37 2 -8 7 -17 11 -20 5 -3 12 -15 15 -28 4 -13 40 -56 79
-96 82 -83 160 -121 307 -153 87 -18 240 -23 275 -9 11 5 29 10 40 12 67 9
283 180 350 275 18 26 18 26 69 13 88 -23 272 -106 370 -167 22 -13 24 -15 81
-57 22 -16 66 -49 99 -72 48 -35 65 -56 96 -118 60 -120 60 -116 -9 -123 -56
-6 -93 -17 -186 -55 -81 -33 -208 -128 -274 -203 -30 -35 -66 -107 -58 -115 7
-8 67 88 61 98 -4 6 -1 9 7 6 8 -3 29 10 47 28 18 19 37 34 41 34 4 0 27 14
51 31 105 76 245 131 339 133 l55 1 24 -65 c38 -103 53 -144 63 -162 5 -10 9
-25 9 -33 0 -8 5 -15 11 -15 5 0 8 -4 5 -8 -3 -5 10 -54 28 -108 74 -216 143
-452 191 -654 40 -167 50 -194 67 -184 6 4 9 1 6 -6 -3 -9 -46 -13 -160 -15
-86 -1 -161 -6 -168 -10 -7 -4 -26 -8 -43 -10 -64 -4 -220 -35 -332 -66 -69
-19 -158 -61 -203 -97 -70 -56 -74 -42 -61 238 4 85 10 283 14 439 3 157 8
289 11 293 3 4 1 8 -4 8 -5 0 -12 -17 -16 -37 -3 -21 -8 -49 -10 -63 -3 -14
-10 -74 -16 -135 -10 -99 -20 -149 -20 -99 0 44 -12 392 -15 424 -2 19 -4 65
-6 103 -1 37 -6 67 -12 67 -6 0 -6 5 0 13 10 13 18 295 8 285 -13 -12 -20
-185 -18 -432 1 -203 4 -261 15 -267 10 -7 10 -9 0 -9 -8 0 -11 -9 -8 -22 3
-13 8 -61 11 -108 3 -47 10 -103 15 -125 5 -22 10 -63 10 -92 0 -31 5 -53 13
-56 8 -4 6 -6 -4 -6 -13 -1 -18 -30 -29 -195 -15 -219 -11 -268 21 -302 18
-20 29 -23 56 -18 18 3 33 4 33 0 0 -3 -9 -27 -19 -54 -11 -27 -30 -82 -44
-123 -96 -290 -139 -425 -142 -448 -2 -14 -13 -53 -24 -86 -34 -103 -102 -334
-136 -465 -18 -69 -55 -174 -83 -235 -68 -152 -91 -230 -99 -336 l-6 -91 -96
6 c-53 4 -168 11 -256 15 -88 5 -180 14 -205 19 -25 6 -90 20 -145 32 -160 35
-206 50 -250 80 -40 27 -82 42 -155 55 -158 28 -223 35 -346 35 -105 0 -158 5
-213 19 -40 11 -75 22 -79 26 -3 3 1 28 11 54 10 29 23 121 32 226 8 97 19
193 25 214 9 33 31 173 60 391 7 47 14 96 16 110 3 14 8 58 11 99 5 62 4 73
-8 66 -8 -4 -4 1 7 13 16 15 23 38 28 89 4 37 16 129 27 203 10 74 21 163 23
197 2 34 6 65 9 70 2 4 8 40 11 78 4 39 16 135 27 215 11 80 22 165 25 190 2
25 13 104 24 175 11 72 23 148 25 170 3 22 11 72 19 110 9 41 11 71 5 73 -5 2
-2 10 6 19 8 8 15 24 15 36 0 29 37 232 60 332 29 124 31 135 21 135 -8 0 -21
-34 -26 -65 0 -5 -4 -17 -8 -25 -4 -8 -13 -40 -21 -70 -11 -41 -11 -57 -3 -62
8 -5 7 -8 -4 -8 -13 0 -23 -34 -49 -167 -18 -92 -34 -181 -36 -198 -2 -16 -12
-79 -23 -140 -20 -109 -66 -421 -96 -650 -9 -66 -21 -156 -26 -200 -6 -44 -13
-93 -14 -110 -1 -16 -6 -41 -9 -55 -4 -14 -10 -56 -15 -95 -8 -56 -39 -267
-55 -370 -2 -11 -18 -112 -35 -225 -18 -113 -37 -221 -42 -240 -25 -93 -69
-469 -59 -510 3 -14 0 -36 -7 -50 -28 -54 -8 -78 91 -111 50 -18 51 -18 52
-60 0 -32 5 -44 20 -50 18 -7 18 -8 -1 -8 -19 -1 -20 -7 -17 -198 2 -124 7
-200 14 -204 7 -4 6 -9 -2 -14 -10 -6 -11 -35 -6 -119 6 -102 7 -381 2 -793
-1 -90 1 -168 5 -174 12 -20 81 -40 154 -45 39 -3 78 -6 88 -8 11 -3 17 2 17
12 0 15 2 15 10 2 8 -13 58 -15 340 -17 303 -2 330 0 330 15 0 14 2 15 10 2
10 -16 125 -25 135 -10 3 5 11 7 18 5 31 -10 120 -14 161 -6 29 5 48 5 55 -2
8 -8 20 -4 41 11 22 17 30 19 30 8 0 -19 33 -22 248 -18 139 2 181 6 176 15
-5 9 -3 9 7 0 16 -15 85 -17 94 -3 4 6 11 8 16 4 6 -3 43 -7 84 -9 65 -2 76 0
95 20 11 12 25 45 30 76 13 81 25 132 56 259 15 63 28 134 28 157 1 22 4 40 7
38 5 -4 39 124 46 175 1 14 23 122 48 240 25 118 47 228 50 245 4 16 11 33 18
37 7 4 9 8 4 8 -4 0 -1 10 7 23 22 35 26 106 31 516 3 211 6 386 9 388 2 2 0
21 -5 41 -5 25 -4 39 4 44 9 6 9 12 0 27 -8 13 -9 22 -3 26 6 3 10 52 10 108
-1 109 -2 104 88 367 46 132 107 294 142 375 28 63 90 233 90 245 0 14 -20 13
-21 -2 -1 -7 -1 -16 0 -20 0 -5 -3 -8 -7 -8 -12 0 -33 -50 -27 -61 4 -5 1 -9
-5 -9 -6 0 -13 -8 -17 -17 -3 -10 -27 -63 -53 -118 -50 -104 -150 -364 -150
-387 0 -8 -4 -18 -9 -24 -12 -12 -62 -154 -55 -154 4 0 2 -6 -4 -13 -8 -9
-152 -421 -152 -434 0 -2 -10 2 -22 8 -29 16 -128 6 -162 -16 -19 -12 -30 -14
-39 -7 -7 6 -37 20 -68 31 -54 21 -65 36 -47 66 5 9 92 299 118 395 5 19 28
100 50 180 23 80 52 186 65 235 74 275 82 300 99 303 9 2 16 7 16 11 0 3 22
15 49 26 32 12 47 23 44 32 -6 16 9 17 24 2 8 -8 17 -8 30 -1 11 6 50 18 87
26 38 9 73 19 80 23 6 4 25 8 41 9 17 2 54 7 83 12 l54 9 -4 -38 c-5 -50 5
-50 22 1 15 47 12 46 209 60 108 8 136 13 146 27 17 23 12 72 -14 147 -12 33
-21 67 -21 76 0 40 -133 483 -210 700 -80 225 -97 265 -185 444 -55 113 -98
186 -123 212 -68 69 -133 125 -160 137 -15 6 -29 14 -32 17 -13 14 -61 40 -75
40 -8 0 -15 4 -15 9 0 5 -18 16 -40 25 -22 9 -40 20 -40 26 0 5 3 9 8 8 16 -5
61 35 67 60 3 15 22 60 41 100 19 41 34 79 34 85 0 5 3 7 7 4 7 -8 53 32 53
46 0 5 10 17 23 27 21 17 64 93 103 185 39 89 21 252 -35 325 -29 37 -34 20
-15 -56 15 -58 16 -78 6 -136 -12 -66 -36 -130 -74 -193 l-18 -30 7 75 c13
123 9 326 -6 344 -15 17 -9 22 39 29 54 8 120 30 131 43 6 8 16 14 21 14 12 0
70 44 153 116 91 79 120 153 113 286 -5 96 -21 133 -84 198 -42 44 -43 46 -33
85 6 22 15 63 21 90 6 28 14 59 18 70 26 65 41 188 43 362 1 62 4 113 7 113 2
0 23 -18 45 -39 22 -22 61 -59 86 -84 53 -52 181 -119 257 -136 131 -28 335 3
414 63 24 18 54 39 68 46 69 34 149 91 201 140 32 30 88 80 123 110 36 30 65
60 65 67 1 6 16 24 34 40 44 38 102 119 131 185 49 111 61 181 61 358 0 164 0
165 -31 231 -39 82 -87 121 -196 160 -141 49 -272 35 -433 -49 -75 -39 -100
-62 -148 -135 -20 -31 -41 -57 -46 -57 -11 0 -36 37 -46 70 -11 35 -78 120
-160 205 -62 65 -78 75 -140 95 -82 26 -134 33 -228 31 -60 -1 -79 -7 -149
-44 -67 -35 -88 -53 -129 -107 -27 -36 -59 -89 -71 -117 -12 -29 -25 -53 -28
-53 -4 0 -21 20 -39 45 -42 59 -326 338 -382 376 -63 43 -202 112 -284 142
-61 21 -111 35 -275 77 -126 31 -344 42 -490 24z m20 -94 c0 -5 -2 -10 -4 -10
-3 0 -8 5 -11 10 -3 6 -1 10 4 10 6 0 11 -4 11 -10z m-345 -180 c3 -5 1 -10
-4 -10 -6 0 -11 5 -11 10 0 6 2 10 4 10 3 0 8 -4 11 -10z m2367 -253 c59 -33
123 -99 152 -154 9 -18 34 -58 56 -89 22 -32 40 -64 40 -71 0 -8 16 -47 35
-87 19 -40 35 -80 35 -89 0 -17 45 -34 78 -29 28 4 48 35 57 87 11 65 61 156
117 216 43 45 70 63 138 91 119 50 123 51 177 34 122 -38 147 -52 173 -97 30
-55 38 -170 20 -320 -9 -84 -18 -115 -42 -159 -40 -70 -89 -133 -149 -190
-129 -122 -236 -217 -268 -239 -20 -14 -48 -33 -63 -43 -15 -10 -34 -18 -42
-18 -8 0 -18 -4 -21 -10 -3 -5 -38 -25 -76 -44 -67 -32 -76 -34 -168 -32 -79
2 -106 7 -151 28 -70 33 -157 101 -215 169 -25 30 -52 57 -60 62 -8 4 -38 42
-66 84 -38 55 -57 97 -74 162 -29 106 -84 266 -120 346 -24 52 -26 67 -20 115
4 30 8 72 9 92 1 22 9 43 18 50 9 7 33 36 54 63 20 28 44 55 53 60 50 32 101
44 181 44 78 1 90 -2 142 -32z m-3235 -282 c-6 -19 -14 -35 -19 -35 -4 0 -8
-6 -8 -13 0 -7 -9 -32 -20 -55 -11 -22 -20 -47 -20 -55 0 -7 -4 -17 -8 -22 -5
-6 -19 -36 -31 -67 -13 -31 -34 -71 -47 -89 -21 -29 -24 -30 -24 -11 0 66 44
188 101 280 12 20 81 101 86 102 0 0 -4 -16 -10 -35z m2523 -95 c56 -40 56
-125 0 -153 -43 -22 -150 4 -150 37 0 8 -7 19 -15 26 -18 15 -19 59 -1 83 7 9
31 23 52 31 42 15 67 9 114 -24z m-247 -90 c46 -51 29 -128 -29 -132 -35 -3
-92 23 -108 47 -19 29 -22 70 -4 59 7 -5 8 -3 3 5 -4 7 2 22 15 36 31 32 85
26 123 -15z m-2176 14 c-3 -3 -12 -4 -19 -1 -8 3 -5 6 6 6 11 1 17 -2 13 -5z
m-32 -48 c22 -22 23 -28 13 -58 -6 -18 -17 -42 -24 -53 -7 -11 -13 -22 -13
-25 0 -5 0 -7 -31 -100 -37 -111 -76 -132 -137 -75 -37 34 -44 117 -14 180 11
24 21 48 21 52 1 25 113 103 148 103 7 0 24 -11 37 -24z m1599 -11 c20 -9 36
-21 36 -26 0 -5 6 -9 13 -9 16 0 67 -89 67 -116 0 -48 -71 -71 -118 -38 -12 8
-22 12 -22 9 0 -4 -26 7 -57 24 -31 17 -62 31 -69 31 -7 0 -26 12 -43 26 -50
42 -37 95 27 114 42 11 125 4 166 -15z m276 -23 c18 -16 40 -62 40 -82 0 -19
-45 -50 -71 -50 -25 0 -72 29 -95 59 -16 20 1 65 29 79 34 16 76 14 97 -6z
m-870 -104 c47 -10 92 -20 102 -22 9 -1 22 -7 30 -13 24 -20 121 -63 129 -57
5 3 9 -2 9 -10 0 -9 4 -16 10 -16 17 0 120 -76 220 -163 37 -32 200 -220 245
-282 16 -22 42 -56 59 -76 79 -91 121 -143 124 -151 6 -15 -53 -9 -113 12 -32
11 -82 20 -110 20 -53 0 -120 -21 -127 -39 -1 -6 -48 -22 -103 -36 -184 -46
-268 -105 -295 -207 -10 -35 -13 -38 -38 -31 -15 5 -58 8 -97 8 -57 0 -80 -5
-123 -27 l-52 -27 -14 33 c-21 51 -83 104 -140 122 -28 8 -105 18 -171 20 -66
3 -130 10 -142 16 -24 12 -131 6 -141 -8 -4 -5 -18 -10 -30 -12 -13 -1 -35
-11 -49 -22 -14 -11 -31 -20 -37 -20 -6 0 -45 -16 -85 -35 -41 -20 -76 -33
-79 -31 -12 12 96 305 154 417 58 113 78 139 103 132 13 -3 23 3 31 19 39 74
158 259 189 292 49 53 174 152 225 178 48 26 158 47 201 41 17 -3 68 -14 115
-25z m-890 7 c17 -9 30 -22 30 -30 0 -8 4 -15 10 -15 13 0 3 -65 -15 -101 -24
-45 -91 -64 -129 -36 -20 15 -36 74 -29 111 7 35 56 86 83 86 11 0 34 -7 50
-15z m1695 -872 c33 -9 65 -19 70 -23 6 -4 25 -11 44 -15 34 -7 34 -7 28 24
-7 36 5 40 43 15 40 -27 140 -127 155 -154 52 -99 -1 -346 -98 -457 -96 -110
-290 -177 -444 -153 -234 36 -392 238 -393 499 0 132 43 185 191 237 152 53
278 62 404 27z m-1131 -127 c120 -28 169 -99 183 -261 17 -208 -77 -389 -247
-475 -128 -64 -323 -64 -453 1 -66 34 -77 53 -77 137 0 88 -41 283 -95 459 -6
18 1 26 47 52 70 41 77 40 72 -9 -2 -22 0 -40 4 -40 4 0 37 25 74 55 70 58
100 74 163 85 70 13 267 10 329 -4z m1576 -102 c31 -21 40 -33 42 -58 4 -76
-7 -126 -53 -240 -51 -127 -56 -146 -38 -146 20 0 89 77 89 99 0 11 4 21 9 21
5 0 17 24 26 53 10 28 22 57 28 62 15 15 0 -124 -19 -176 -27 -74 -25 -142 3
-96 10 17 43 30 43 17 0 -14 52 -12 71 3 28 21 57 91 79 188 34 147 31 141 86
160 90 32 139 23 198 -36 46 -46 66 -94 66 -159 0 -96 -48 -188 -128 -248 -89
-66 -111 -79 -165 -93 -32 -8 -80 -26 -107 -40 -27 -14 -55 -25 -63 -25 -7 0
-35 -20 -63 -45 -27 -24 -57 -47 -67 -51 -10 -3 -16 -12 -13 -19 3 -9 -2 -11
-15 -8 -14 4 -22 0 -26 -13 -3 -11 -53 -50 -111 -89 -59 -38 -111 -75 -117
-81 -5 -7 -39 -25 -75 -42 -36 -16 -94 -43 -130 -59 -36 -17 -80 -44 -99 -61
l-35 -30 12 -52 c7 -28 12 -64 12 -79 0 -27 64 -141 80 -141 5 0 11 6 14 13 3
6 3 2 0 -10 -4 -17 -2 -21 9 -17 15 5 30 -29 21 -49 -6 -15 -96 -85 -144 -113
-54 -31 -205 -57 -298 -52 -79 5 -217 42 -240 65 -7 7 -19 13 -25 13 -18 0
-130 118 -123 129 6 8 81 51 91 51 3 0 5 -9 5 -20 0 -11 5 -20 10 -20 6 0 9 6
8 12 -2 7 7 14 19 16 50 8 41 99 -15 156 l-37 38 -110 5 c-61 2 -181 17 -270
34 -149 28 -169 35 -294 96 -115 56 -144 75 -206 137 -95 94 -127 158 -120
242 2 34 9 73 15 88 l10 26 50 -25 c157 -80 383 -69 528 24 71 46 143 126 177
195 38 78 59 203 49 295 -4 42 -8 80 -9 86 0 5 29 19 65 31 100 35 220 20 220
-27 0 -45 34 -177 60 -236 51 -112 163 -210 288 -252 73 -25 219 -28 297 -7
260 69 382 247 385 559 0 15 2 27 5 27 3 0 23 -12 45 -26z m-2307 -236 c3 -13
11 -51 18 -85 7 -35 16 -63 19 -63 3 0 6 -18 6 -40 3 -54 -8 -44 -41 37 -15
38 -30 73 -34 78 -4 6 -9 29 -10 53 -1 36 1 42 18 42 11 0 21 -9 24 -22z
m1895 -1060 c-2 -57 1 -120 5 -140 9 -44 -1 -49 -40 -18 -24 18 -26 27 -28
103 -2 109 3 137 29 147 12 5 24 9 29 9 4 1 6 -45 5 -101z m-963 -8 c3 -5 1
-10 -4 -10 -6 0 -11 5 -11 10 0 6 2 10 4 10 3 0 8 -4 11 -10z m115 -270 c40
-62 91 -107 162 -141 70 -35 116 -47 216 -55 67 -6 86 -4 93 7 6 9 9 10 9 2 0
-22 189 17 211 43 6 8 16 14 21 14 14 0 110 75 143 112 29 33 31 33 60 19 17
-8 31 -15 33 -17 18 -13 -92 -133 -185 -202 -29 -22 -49 -43 -45 -47 4 -5 2
-5 -4 -2 -6 4 -45 -5 -85 -19 -67 -24 -84 -26 -179 -21 -253 13 -431 108 -538
286 l-22 38 32 16 c18 9 36 17 39 17 4 0 21 -23 39 -50z m1455 -3242 c-8 -84
-18 -227 -21 -318 -3 -91 -7 -171 -10 -178 -2 -7 1 -23 7 -34 6 -11 7 -18 1
-14 -6 3 -10 -43 -11 -122 -1 -70 -5 -147 -9 -170 -7 -44 -7 -44 -53 -47 l-46
-3 14 59 c9 40 15 154 17 357 4 294 6 342 16 352 13 13 79 231 74 244 -4 10 0
18 10 22 9 3 17 14 17 23 1 14 2 14 6 -1 2 -10 -3 -86 -12 -170z m-405 -77
c25 -9 46 -16 47 -17 2 0 -3 -15 -10 -33 -11 -30 -14 -32 -47 -26 -61 11 -99
26 -95 38 23 65 26 69 43 62 9 -4 37 -15 62 -24z m244 4 c13 -10 17 -22 13
-42 -3 -15 -8 -46 -12 -68 -11 -55 -31 -71 -80 -65 -93 12 -108 145 -20 181
31 12 78 10 99 -6z m-319 -105 c22 -11 56 -20 76 -20 29 0 39 -5 44 -20 17
-54 89 -90 154 -77 l29 6 5 -62 c6 -85 0 -445 -8 -484 -4 -17 -19 -42 -32 -55
l-26 -23 7 38 c5 27 3 37 -6 38 -10 0 -10 2 0 6 14 6 16 49 2 58 -14 8 -43
-42 -36 -62 4 -9 3 -19 -2 -22 -4 -3 -15 -24 -23 -46 -22 -59 -41 -52 -54 19
-5 33 -16 61 -22 64 -16 5 -33 -39 -33 -84 0 -40 -28 -100 -59 -128 -31 -28
-36 -13 -13 41 23 55 37 150 28 189 -4 14 -9 24 -12 21 -3 -2 -16 -46 -30 -97
-29 -112 -56 -160 -89 -160 -40 0 -49 25 -60 170 -3 41 -9 89 -12 105 -4 17
-6 36 -4 43 3 18 -16 15 -23 -4 -3 -9 -6 -25 -6 -37 0 -13 -3 -17 -8 -10 -8
13 2 230 12 255 5 11 2 18 -11 21 -16 4 -16 5 2 6 16 1 26 20 53 103 22 66 42
108 56 119 21 17 32 38 50 92 7 21 4 21 51 -3z m350 -520 c3 -5 2 -10 -4 -10
-5 0 -13 5 -16 10 -3 6 -2 10 4 10 5 0 13 -4 16 -10z m-215 -267 c0 -14 -41
-75 -46 -70 -3 3 5 21 18 41 24 37 28 41 28 29z m60 -13 c0 -5 -5 -10 -11 -10
-5 0 -7 5 -4 10 3 6 8 10 11 10 2 0 4 -4 4 -10z m140 -36 c0 -8 -4 -12 -10 -9
-5 3 -10 10 -10 16 0 5 5 9 10 9 6 0 10 -7 10 -16z m0 -524 c0 -5 -2 -10 -4
-10 -3 0 -8 5 -11 10 -3 6 -1 10 4 10 6 0 11 -4 11 -10z m-2174 -617 c-2 -2
-11 0 -20 3 -14 5 -15 9 -5 15 12 7 34 -10 25 -18z m888 6 c-3 -5 -10 -7 -15
-3 -5 3 -7 10 -3 15 3 5 10 7 15 3 5 -3 7 -10 3 -15z m864 -34 c-3 -3 -9 2
-12 12 -6 14 -5 15 5 6 7 -7 10 -15 7 -18z m-1748 5 c0 -5 -5 -10 -11 -10 -5
0 -7 5 -4 10 3 6 8 10 11 10 2 0 4 -4 4 -10z"/>
<path d="M8442 9312 c3 -11 1 -23 -4 -24 -5 -2 -8 -14 -6 -27 3 -23 4 -22 19
10 15 31 15 36 1 49 -14 12 -15 11 -10 -8z"/>
<path d="M9878 8866 c-37 -9 -61 -23 -103 -65 -30 -29 -55 -61 -55 -70 0 -9
-5 -22 -11 -28 -20 -20 -22 -122 -3 -172 19 -49 20 -51 61 -97 44 -48 97 -76
156 -79 83 -5 124 10 182 68 86 85 103 177 54 294 -13 32 -12 34 21 62 38 32
35 51 -5 33 -40 -18 -60 -15 -116 20 -62 38 -117 48 -181 34z m-44 -162 c22
-21 31 -64 19 -83 -7 -11 -25 -16 -54 -16 -37 0 -46 4 -56 25 -17 35 -6 67 26
79 37 14 48 13 65 -5z"/>
<path d="M8553 8717 c-18 -7 -54 -33 -80 -58 l-48 -46 -34 19 c-18 10 -35 17
-38 14 -6 -6 27 -56 37 -56 16 0 18 -28 6 -64 -34 -98 30 -235 134 -288 30
-15 68 -28 85 -28 41 0 105 19 105 30 0 6 7 10 15 10 55 0 134 165 120 252
-12 76 -44 134 -92 172 -48 37 -105 56 -111 37 -5 -16 -27 -14 -42 4 -14 17
-14 17 -57 2z m-23 -208 c25 -46 -2 -99 -50 -99 -77 0 -90 106 -15 121 37 7
53 2 65 -22z"/>
<path d="M9539 8196 c-2 -2 -103 -16 -224 -31 -259 -31 -294 -38 -291 -63 4
-23 74 -69 141 -93 59 -20 115 -25 115 -9 0 11 -69 48 -97 53 -20 3 -83 35
-83 42 0 9 83 26 168 35 48 6 112 12 142 16 30 3 74 9 98 13 23 5 42 5 42 0 0
-19 -99 -106 -153 -133 -31 -16 -57 -33 -57 -37 0 -12 89 17 109 35 10 9 22
16 27 16 12 0 73 63 102 106 16 23 18 34 10 42 -12 12 -40 16 -49 8z"/>
<path d="M744 10655 c-11 -17 -18 -63 -24 -162 -4 -76 -13 -151 -18 -168 -53
-161 -164 -306 -256 -336 -50 -17 -136 -101 -136 -134 0 -29 32 -70 67 -83 15
-6 69 -23 118 -38 50 -15 99 -35 110 -44 11 -9 41 -29 66 -43 81 -46 161 -139
218 -251 49 -98 56 -119 82 -255 12 -63 36 -101 63 -101 7 0 25 11 40 25 26
24 26 24 20 137 -3 62 -7 118 -9 124 -4 13 17 79 28 90 4 4 7 22 7 40 0 30 27
116 49 154 4 8 15 40 24 70 9 30 32 81 52 114 19 32 35 61 35 64 0 3 32 60 70
128 76 134 87 166 68 204 -11 19 -28 28 -83 41 -208 50 -304 113 -403 263 -34
51 -62 98 -62 104 0 6 -14 27 -31 47 -37 42 -71 46 -95 10z m251 -449 c53 -44
91 -68 115 -72 19 -3 54 -12 77 -20 l43 -16 -14 -33 c-8 -19 -26 -51 -40 -72
-14 -21 -26 -42 -26 -48 0 -6 -20 -51 -45 -100 -25 -50 -45 -97 -45 -105 0
-28 -57 -194 -67 -197 -6 -2 -22 15 -36 39 -38 63 -124 149 -185 183 -30 17
-66 39 -80 51 -15 12 -42 29 -60 38 -17 9 -32 21 -32 26 0 5 18 27 40 49 22
22 40 44 40 49 0 5 15 24 34 43 21 21 53 79 86 154 66 150 66 151 93 120 12
-13 58 -54 102 -89z"/>
<path d="M1682 9668 c-7 -7 -12 -22 -12 -34 0 -13 -5 -35 -11 -51 -6 -15 -15
-50 -20 -77 -17 -88 -151 -285 -195 -286 -18 0 -44 -35 -44 -58 0 -16 14 -31
48 -52 71 -43 148 -144 178 -232 39 -115 64 -201 64 -223 0 -34 20 -93 37
-110 8 -9 27 -15 42 -13 28 3 36 21 116 268 21 63 43 122 50 130 6 8 20 38 30
65 10 28 25 59 35 70 56 67 83 165 50 185 -8 5 -45 33 -82 62 -52 42 -76 70
-111 133 -24 44 -50 98 -57 120 -18 55 -38 83 -71 101 -34 17 -32 17 -47 2z
m82 -347 c10 -22 42 -58 70 -80 73 -59 76 -61 76 -70 0 -5 -11 -24 -24 -44
-26 -38 -63 -121 -98 -219 -11 -32 -24 -55 -29 -53 -4 3 -13 22 -19 43 -24 72
-74 154 -122 197 -47 42 -54 67 -23 79 8 2 26 31 42 63 39 80 71 123 91 123
10 0 25 -17 36 -39z"/>
<path d="M11605 7721 c-76 -8 -120 -23 -224 -74 -110 -55 -229 -167 -255 -242
-10 -27 -27 -71 -37 -97 -31 -77 -42 -219 -23 -308 28 -130 73 -210 176 -310
72 -70 99 -90 136 -100 26 -7 52 -16 57 -20 6 -4 21 -10 35 -13 14 -3 51 -12
83 -21 67 -18 132 -20 208 -6 60 11 159 49 159 61 0 4 8 10 18 14 39 12 156
116 194 172 56 83 68 107 90 187 38 133 24 321 -33 426 -53 100 -188 240 -231
240 -5 0 -27 13 -47 29 -22 18 -58 33 -96 40 -33 7 -76 17 -96 22 -20 5 -40 8
-45 7 -5 0 -36 -4 -69 -7z m181 -155 c54 -19 162 -87 203 -128 65 -65 123
-214 122 -316 -1 -190 -126 -366 -314 -441 -53 -21 -70 -23 -176 -19 l-116 5
-84 48 c-103 58 -132 88 -181 190 -44 92 -53 133 -51 230 2 87 16 136 58 202
18 29 33 56 33 60 0 5 19 25 43 44 119 100 210 137 338 138 50 1 103 -5 125
-13z"/>
<path d="M2955 7237 c-70 -113 -74 -121 -62 -129 8 -5 6 -9 -6 -14 -9 -3 -17
-12 -17 -20 0 -22 15 -16 30 11 9 17 21 25 34 23 17 -2 21 -10 21 -40 1 -21 6
-43 12 -49 18 -18 34 24 40 108 5 58 3 77 -8 84 -10 6 -10 9 -1 9 16 0 15 18
-2 36 -19 18 -18 19 -41 -19z m11 -83 c-5 -19 -10 -24 -17 -17 -8 8 -7 18 1
33 15 28 24 19 16 -16z"/>
<path d="M3093 7222 c-13 -8 -59 -109 -73 -163 -6 -23 -7 -46 -2 -55 7 -12 13
-6 27 28 18 41 19 42 22 16 6 -38 38 -60 68 -46 18 8 56 70 61 98 0 3 6 17 12
31 8 21 16 26 36 22 37 -7 39 -15 16 -73 -11 -28 -20 -65 -20 -83 0 -28 2 -30
15 -16 9 8 27 47 40 85 22 64 26 69 54 70 24 0 28 -3 20 -13 -15 -17 -4 -43
18 -43 16 0 18 -9 16 -68 -2 -74 8 -105 28 -85 7 7 14 35 17 62 4 50 13 59 41
42 13 -9 13 -22 -3 -93 -4 -16 -2 -28 4 -28 15 0 40 44 46 82 7 40 -8 56 -54
60 -23 2 -32 7 -32 20 0 21 -41 66 -77 85 -16 8 -55 17 -88 19 -33 3 -65 7
-71 9 -14 4 -44 -27 -73 -75 -11 -19 -21 -28 -22 -20 0 8 -2 41 -4 73 -3 63
-5 69 -22 59z"/>
<path d="M3313 7019 c-13 -28 -23 -57 -23 -64 0 -24 18 -26 33 -5 11 16 21 20
43 15 l29 -6 -21 18 c-20 17 -20 22 -8 46 13 24 12 27 -5 37 -11 5 -21 10 -23
10 -2 0 -13 -23 -25 -51z"/>
<path d="M3620 7001 c-55 -22 -100 -103 -79 -142 23 -43 63 -43 96 1 35 46 21
156 -17 141z m-5 -107 c-8 -13 -22 -24 -30 -24 -20 0 -13 41 16 81 l24 34 3
-33 c2 -19 -4 -44 -13 -58z"/>
<path d="M3695 6925 c-9 -30 -20 -55 -24 -55 -4 0 -13 -11 -19 -25 -11 -24
-10 -25 13 -19 19 5 24 3 20 -7 -3 -8 0 -21 5 -29 9 -13 12 -12 25 4 8 11 16
29 17 40 0 12 2 27 2 34 1 6 14 26 30 42 17 19 26 36 22 47 -6 14 -8 14 -25
-1 -18 -17 -20 -16 -26 3 -11 35 -24 24 -40 -34z"/>
<path d="M3849 6917 c8 -10 2 -20 -29 -43 -51 -38 -66 -67 -54 -102 5 -15 18
-28 28 -30 16 -3 18 0 13 25 -8 38 5 57 32 48 12 -4 21 -2 21 4 0 6 -7 11 -15
11 -8 0 -15 5 -15 10 0 6 3 10 8 10 4 0 16 13 27 29 15 23 22 27 33 19 9 -8
16 -8 24 0 8 8 4 14 -16 22 -40 15 -71 13 -57 -3z"/>
<path d="M3090 6910 c0 -5 5 -10 10 -10 7 0 7 -6 0 -19 -5 -11 -10 -30 -10
-43 0 -20 3 -18 22 15 21 36 40 45 65 29 10 -6 10 -12 -2 -28 -27 -36 -14 -94
22 -94 11 0 12 9 7 38 -7 34 -6 36 9 23 10 -7 17 -10 17 -6 0 4 -7 13 -17 20
-21 16 -9 35 23 35 13 0 24 4 24 9 0 18 -31 33 -60 29 -17 -3 -33 -1 -36 4 -7
12 -74 10 -74 -2z"/>
<path d="M3943 6883 c-4 -9 -28 -45 -55 -80 -26 -35 -48 -68 -48 -74 0 -14 16
-11 30 6 18 22 24 19 37 -16 15 -38 35 -29 33 15 -3 50 -1 53 25 60 31 8 46
54 21 68 -9 5 -16 16 -16 23 0 20 -19 19 -27 -2z"/>
<path d="M3267 6828 c-36 -60 -47 -98 -28 -98 5 0 16 12 25 26 20 30 41 27 41
-6 0 -33 23 -37 35 -5 16 42 12 93 -9 114 -11 11 -17 22 -13 25 3 3 1 6 -4 6
-6 0 -27 -28 -47 -62z m43 -18 c0 -11 -4 -20 -9 -20 -5 0 -7 9 -4 20 3 11 7
20 9 20 2 0 4 -9 4 -20z"/>
<path d="M3423 6843 c-7 -2 -13 -9 -13 -14 0 -6 4 -8 9 -5 5 3 14 -1 21 -10
10 -11 10 -18 2 -26 -9 -9 -12 -8 -12 5 0 10 -8 17 -19 17 -17 0 -33 -28 -46
-80 -1 -3 -5 -13 -9 -22 -11 -26 1 -55 16 -40 18 18 25 15 32 -14 11 -43 29
-13 25 40 -4 42 -2 46 23 55 14 5 32 19 38 31 10 18 8 26 -11 46 -22 24 -33
27 -56 17z"/>
<path d="M3510 6710 c-12 -16 -24 -45 -27 -64 -4 -28 -1 -36 16 -46 23 -12 77
-5 87 11 3 5 -8 14 -26 20 -21 8 -29 16 -26 28 23 77 12 101 -24 51z"/>
<path d="M3578 6713 c7 -3 16 -2 19 1 4 3 -2 6 -13 5 -11 0 -14 -3 -6 -6z"/>
<path d="M3662 6694 c-13 -9 -22 -26 -22 -41 0 -15 -7 -34 -16 -44 -15 -17
-12 -39 5 -39 19 0 61 51 61 74 0 14 7 29 16 34 18 10 11 32 -9 32 -7 0 -23
-7 -35 -16z"/>
<path d="M2481 6659 c-1 -14 3 -39 8 -55 5 -16 17 -73 27 -126 9 -54 21 -98
26 -98 7 0 8 16 3 43 -3 23 -9 57 -12 75 -3 17 -8 32 -12 32 -3 0 -7 19 -8 43
-1 24 -8 59 -16 78 -15 32 -15 33 -16 8z"/>
<path d="M9951 6426 c21 -21 86 -57 118 -66 127 -34 227 -170 205 -279 -6 -28
-8 -30 -19 -14 -14 19 -59 24 -210 26 -63 1 -75 -2 -123 -32 -29 -18 -51 -35
-49 -38 3 -2 22 7 42 21 51 35 110 50 160 40 22 -4 66 -8 97 -8 66 -1 79 -10
71 -49 -6 -28 -84 -97 -149 -130 -64 -33 -207 -30 -276 5 -29 14 -23 65 10 82
25 14 25 15 5 16 -12 0 -29 -10 -37 -22 -15 -21 -16 -21 -35 23 -46 101 -16
203 90 304 63 60 95 102 86 111 -3 3 -8 -3 -11 -13 -3 -11 -38 -47 -76 -82
-82 -73 -118 -130 -127 -199 -6 -54 17 -141 43 -162 7 -7 14 -20 14 -29 0 -31
26 -53 66 -57 21 -2 62 -8 89 -14 63 -13 141 2 187 35 18 14 54 39 80 57 26
18 48 37 48 42 0 5 7 17 15 26 21 23 29 98 16 147 -25 93 -124 192 -207 208
-20 3 -53 17 -73 31 -30 20 -64 34 -50 20z"/>
<path d="M2545 6313 c10 -85 15 -103 32 -103 8 0 13 6 11 13 -3 6 -11 42 -18
80 -17 83 -35 90 -25 10z"/>
<path d="M2760 6275 c0 -5 9 -23 20 -40 11 -16 20 -25 20 -20 0 6 -9 24 -20
40 -11 17 -20 26 -20 20z"/>
<path d="M10096 6224 c-21 -21 -20 -36 5 -68 22 -28 65 -37 55 -11 -3 8 -1 15
4 15 17 0 11 39 -10 60 -24 24 -34 25 -54 4z m18 -45 c-3 -5 -10 -7 -15 -3 -5
3 -7 10 -3 15 3 5 10 7 15 3 5 -3 7 -10 3 -15z"/>
<path d="M2563 6188 c2 -7 10 -46 17 -85 11 -60 15 -70 25 -56 12 16 8 63 -5
63 -5 0 -6 9 -3 20 3 11 2 28 -2 37 -5 10 -7 21 -7 26 1 4 -5 7 -14 7 -9 0
-14 -6 -11 -12z"/>
<path d="M2815 6170 c3 -5 11 -10 16 -10 6 0 7 5 4 10 -3 6 -11 10 -16 10 -6
0 -7 -4 -4 -10z"/>
<path d="M9813 6153 c-18 -7 -16 -30 3 -37 8 -3 12 -10 9 -16 -4 -6 -11 -8
-16 -5 -5 4 -9 0 -9 -7 0 -23 17 -40 36 -36 23 4 31 56 14 88 -11 20 -16 22
-37 13z"/>
<path d="M2862 6103 c63 -93 102 -143 110 -143 4 0 -7 20 -24 45 -18 25 -35
45 -40 45 -4 0 -8 4 -8 10 0 14 -53 89 -63 90 -5 0 7 -21 25 -47z"/>
<path d="M2600 6003 c0 -5 14 -66 31 -138 16 -71 33 -145 37 -164 4 -19 13
-36 20 -39 17 -5 16 5 -12 122 -13 55 -27 121 -31 146 -4 25 -11 53 -17 63 -9
17 -28 24 -28 10z"/>
<path d="M10090 5999 c-58 -5 -104 -16 -145 -34 -33 -15 -71 -31 -84 -34 -24
-7 -24 -7 11 -24 20 -9 48 -17 64 -17 37 0 23 11 -23 20 l-38 7 60 28 c46 22
78 29 140 32 l80 4 -40 -26 c-22 -14 -52 -28 -68 -32 -15 -3 -30 -10 -33 -15
-10 -16 57 1 91 23 53 34 102 82 78 78 -5 -1 -46 -5 -93 -10z"/>
<path d="M2985 5930 c3 -5 11 -10 16 -10 6 0 7 5 4 10 -3 6 -11 10 -16 10 -6
0 -7 -4 -4 -10z"/>
<path d="M3010 5904 c0 -3 13 -22 30 -42 104 -130 133 -162 142 -162 5 0 3 7
-6 15 -8 9 -47 56 -87 105 -68 86 -79 97 -79 84z"/>
<path d="M2684 5628 c4 -13 9 -33 12 -46 11 -52 40 -126 50 -129 7 -2 1 35
-15 97 -17 65 -31 100 -40 100 -9 0 -11 -7 -7 -22z"/>
<path d="M3230 5640 c0 -5 5 -10 11 -10 5 0 7 5 4 10 -3 6 -8 10 -11 10 -2 0
-4 -4 -4 -10z"/>
<path d="M3270 5607 c0 -12 51 -77 61 -77 5 0 0 10 -11 23 -10 12 -26 31 -34
42 -9 11 -16 16 -16 12z"/>
<path d="M3350 5511 c0 -5 7 -15 17 -22 15 -13 15 -12 4 9 -12 23 -21 28 -21
13z"/>
<path d="M2740 5425 c0 -8 7 -15 15 -15 9 0 12 6 9 15 -4 8 -10 15 -15 15 -5
0 -9 -7 -9 -15z"/>
<path d="M2757 5388 c-6 -18 23 -98 35 -98 6 0 8 6 5 14 -3 8 -11 33 -17 55
-11 43 -16 49 -23 29z"/>
<path d="M8732 5280 c0 -14 2 -19 5 -12 2 6 2 18 0 25 -3 6 -5 1 -5 -13z"/>
<path d="M2790 5268 c1 -7 7 -24 15 -38 15 -26 19 -12 9 28 -7 23 -24 31 -24
10z"/>
<path d="M9019 5242 c6 -12 16 -24 22 -28 8 -4 8 -1 0 14 -6 12 -16 24 -22 28
-8 4 -8 1 0 -14z"/>
<path d="M2820 5188 c0 -9 5 -20 10 -23 13 -8 13 5 0 25 -8 13 -10 13 -10 -2z"/>
<path d="M8752 5175 c0 -16 3 -39 8 -50 l9 -20 -1 20 c0 11 -4 34 -8 50 l-8
30 0 -30z"/>
<path d="M9050 5181 c0 -5 7 -14 15 -21 16 -14 18 -10 9 14 -6 17 -24 22 -24
7z"/>
<path d="M9080 5130 c0 -5 5 -10 11 -10 5 0 7 5 4 10 -3 6 -8 10 -11 10 -2 0
-4 -4 -4 -10z"/>
<path d="M9113 5080 c6 -16 15 -30 19 -30 5 0 2 14 -7 30 -9 17 -17 30 -19 30
-3 0 1 -13 7 -30z"/>
<path d="M8770 5085 c0 -8 4 -15 10 -15 5 0 7 7 4 15 -4 8 -8 15 -10 15 -2 0
-4 -7 -4 -15z"/>
<path d="M8780 5030 c0 -5 5 -10 11 -10 5 0 7 5 4 10 -3 6 -8 10 -11 10 -2 0
-4 -4 -4 -10z"/>
<path d="M9140 5036 c0 -12 74 -126 81 -126 13 0 11 18 -3 27 -7 4 -24 29 -38
56 -21 39 -40 60 -40 43z"/>
<path d="M8800 4953 c0 -10 59 -254 70 -289 6 -17 10 -39 10 -49 0 -12 3 -16
10 -9 6 6 -4 60 -26 149 -20 77 -38 155 -41 173 -3 17 -9 32 -14 32 -5 0 -9
-3 -9 -7z"/>
<path d="M9227 4887 c26 -40 69 -103 74 -107 4 -3 16 -23 27 -46 11 -22 28
-46 36 -53 9 -8 16 -17 16 -21 0 -7 122 -195 136 -209 2 -2 7 -1 11 2 3 4 -1
15 -10 25 -10 10 -17 24 -17 30 0 7 -4 12 -10 12 -5 0 -12 11 -16 25 -3 14
-10 25 -15 25 -5 0 -14 12 -19 26 -6 14 -37 63 -70 110 -33 46 -60 88 -60 94
0 5 -10 16 -22 24 -12 9 -19 16 -15 16 12 0 -23 48 -39 54 -10 4 -12 2 -7 -7z"/>
<path d="M1704 4789 c-2 -4 15 -13 38 -20 24 -6 63 -17 88 -25 25 -7 63 -16
85 -20 22 -3 94 -21 160 -39 206 -55 394 -93 550 -110 33 -3 74 -8 90 -10 296
-39 872 -79 853 -60 -10 10 -499 76 -553 74 -25 -1 -302 34 -485 60 -131 19
-344 61 -405 80 -88 28 -413 82 -421 70z"/>
<path d="M8894 4573 c3 -10 8 -35 12 -56 3 -21 10 -35 15 -30 10 10 -11 103
-23 103 -5 0 -7 -8 -4 -17z"/>
<path d="M8931 4428 c-1 -9 4 -29 10 -45 11 -29 21 -69 22 -90 0 -7 5 -13 10
-13 5 0 6 10 3 23 -4 12 -9 36 -13 52 -7 40 -31 95 -32 73z"/>
<path d="M9540 4420 c6 -11 15 -20 20 -20 6 0 5 9 -2 20 -7 11 -16 20 -21 20
-4 0 -3 -9 3 -20z"/>
<path d="M9570 4370 c6 -11 15 -20 20 -20 6 0 5 9 -2 20 -7 11 -16 20 -21 20
-4 0 -3 -9 3 -20z"/>
<path d="M9624 4295 c8 -16 25 -41 37 -55 l21 -25 -17 31 c-10 17 -26 41 -37
55 l-19 24 15 -30z"/>
<path d="M8970 4261 c0 -17 12 -41 20 -41 10 0 1 38 -11 46 -5 3 -9 1 -9 -5z"/>
<path d="M8994 4183 c3 -10 10 -37 15 -61 5 -24 12 -47 16 -50 4 -4 5 7 1 23
-3 17 -9 47 -13 68 -3 20 -10 37 -15 37 -5 0 -7 -8 -4 -17z"/>
<path d="M9048 3975 c2 -14 8 -27 12 -30 4 -2 5 7 2 20 -2 14 -8 27 -12 30 -4
2 -5 -7 -2 -20z"/>
<path d="M4700 3436 c-5 -13 -12 -43 -15 -66 -3 -23 -10 -52 -15 -65 -8 -20
-35 -187 -32 -192 7 -12 17 2 19 25 2 29 69 287 78 301 2 5 -2 12 -10 15 -10
4 -19 -3 -25 -18z"/>
<path d="M4633 3063 c-1 -19 1 -22 8 -12 11 17 12 39 2 39 -5 0 -9 -12 -10
-27z"/>
<path d="M7615 3020 c3 -5 8 -10 11 -10 2 0 4 5 4 10 0 6 -5 10 -11 10 -5 0
-7 -4 -4 -10z"/>
<path d="M7650 2890 c0 -3 -3 -81 -6 -175 -9 -289 -37 -420 -125 -584 -43 -80
-121 -188 -151 -209 -13 -9 -17 -20 -12 -34 5 -17 3 -20 -11 -14 -11 4 -30 -4
-54 -24 -20 -17 -47 -40 -59 -51 -13 -10 -30 -19 -37 -19 -8 0 -20 -6 -27 -14
-8 -7 -24 -17 -36 -20 -29 -9 -28 -26 1 -25 32 0 109 33 100 42 -4 5 0 5 10 1
9 -3 17 -2 17 4 0 5 10 12 23 16 44 11 177 138 231 221 60 91 76 123 63 129
-7 2 -5 5 4 5 10 1 22 21 34 59 11 31 22 62 26 67 3 6 15 51 25 100 23 117 24
416 1 485 -8 25 -16 43 -17 40z"/>
</g>
</svg>
